#!OML:ASF F:\VICON\USERDATA\INSTALL\rory3\rory3.ASF
:FULLY-SPECIFIED
:DEGREES
350
root 0.562067 18.0968 -13.9811 7.37466 -5.8463 0.701991
lowerback 5.21413 -0.378209 -0.529911
upperback -1.61334 -0.421312 2.78437
thorax -4.57323 -0.152847 3.22469
lowerneck -17.8122 -2.85494 -10.3251
upperneck 13.1678 -2.4128 6.79231
head 7.16427 -1.0648 3.64268
rclavicle -5.1684e-015 -2.06736e-014
rhumerus -40.6604 -16.8204 -72.9714
rradius 30.356
rwrist 4.7264
rhand -14.0627 12.5935
rfingers 7.12502
rthumb 12.0687 -17.0384
lclavicle -5.1684e-015 -2.06736e-014
lhumerus -44.19 22.7234 75.3644
lradius 26.95
lwrist -7.65265
lhand -19.9636 22.6452
lfingers 7.12502
lthumb 6.37493 52.5293
rfemur -8.96703 4.9478 19.5513
rtibia 22.9813
rfoot -7.66158 -9.72768
rtoes 1.43137
lfemur -6.17864 -2.39314 -18.8301
ltibia 16.6257
lfoot -8.49901 5.39789
ltoes -5.02677
351
root 0.566305 18.076 -13.9883 7.41184 -5.52876 0.696111
lowerback 5.29043 -0.503888 -0.630906
upperback -1.78004 -0.588361 2.87561
thorax -4.7789 -0.227636 3.39627
lowerneck -17.7949 -2.87805 -10.439
upperneck 13.443 -2.44083 6.87608
head 7.25642 -1.08027 3.68979
rclavicle -2.98177e-016 3.97569e-015
rhumerus -40.8209 -16.5054 -72.8731
rradius 30.4588
rwrist 4.61771
rhand -13.8066 12.9272
rfingers 7.12502
rthumb 12.3155 -16.6901
lclavicle -2.98177e-016 3.97569e-015
lhumerus -44.5393 22.714 75.3798
lradius 27.1
lwrist -7.5582
lhand -20.0343 22.443
lfingers 7.12502
lthumb 6.30672 52.3291
rfemur -8.86842 4.83986 19.5704
rtibia 22.8928
rfoot -8.27584 -9.874
rtoes 1.5732
lfemur -6.20756 -2.48598 -18.8377
ltibia 16.6314
lfoot -9.04819 5.37162
ltoes -4.90873
352
root 0.569361 18.0687 -13.9949 7.39556 -5.31812 0.592249
lowerback 5.47455 -0.540386 -0.665446
upperback -1.97711 -0.630076 2.96015
thorax -5.08605 -0.240255 3.51525
lowerneck -17.4685 -2.85227 -10.3095
upperneck 13.5004 -2.45253 6.7452
head 7.2175 -1.09721 3.6242
rclavicle 1.86858e-014 7.95139e-016
rhumerus -41.1135 -15.987 -72.9005
rradius 30.7447
rwrist 4.11648
rhand -13.8672 13.1869
rfingers 7.12502
rthumb 12.2571 -16.4339
lclavicle 1.86858e-014 7.95139e-016
lhumerus -44.8536 22.1144 75.6844
lradius 27.3894
lwrist -6.96719
lhand -20.3508 22.2005
lfingers 7.12502
lthumb 6.00113 52.0955
rfemur -8.7832 4.80957 19.6845
rtibia 22.7611
rfoot -8.64964 -9.997
rtoes 1.67425
lfemur -6.20349 -2.64259 -18.7331
ltibia 16.6588
lfoot -9.5744 5.47286
ltoes -1.767
353
root 0.571334 18.0479 -14.0026 7.39997 -5.23727 0.479459
lowerback 5.39125 -0.523271 -0.670568
upperback -2.05889 -0.603887 3.01842
thorax -5.12553 -0.224847 3.57664
lowerneck -17.0085 -2.80116 -10.3165
upperneck 13.313 -2.43872 6.83187
head 7.07808 -1.0883 3.65394
rclavicle -2.5842e-015 1.19271e-014
rhumerus -41.1537 -15.9314 -72.8211
rradius 30.7271
rwrist 4.13307
rhand -14.1683 13.4563
rfingers 7.12502
rthumb 11.9668 -16.1816
lclavicle -2.5842e-015 1.19271e-014
lhumerus -44.9763 21.7222 75.8725
lradius 27.5316
lwrist -6.55256
lhand -20.4512 22.1892
lfingers 7.12502
lthumb 5.90417 52.087
rfemur -8.67604 5.02018 19.7914
rtibia 22.5464
rfoot -8.96032 -10.1815
rtoes 2.14658
lfemur -6.23463 -2.77428 -18.6354
ltibia 16.74
lfoot -10.0814 5.72577
ltoes -0.403598
354
root 0.572698 18.0053 -14.0139 7.39282 -5.02754 0.540987
lowerback 5.19382 -0.526958 -0.743366
upperback -1.90646 -0.621435 2.96619
thorax -4.85222 -0.237066 3.55817
lowerneck -17.3907 -2.90305 -10.3123
upperneck 13.3621 -2.57089 7.00982
head 7.17324 -1.12945 3.69821
rclavicle 6.4605e-015 -3.49861e-014
rhumerus -40.7686 -16.2104 -72.8623
rradius 30.7871
rwrist 4.23665
rhand -14.1114 13.7046
rfingers 7.12502
rthumb 12.0217 -15.9301
lclavicle 6.4605e-015 -3.49861e-014
lhumerus -44.522 21.5859 76.0502
lradius 27.5049
lwrist -6.40706
lhand -20.9126 21.3762
lfingers 7.12502
lthumb 5.45869 51.2859
rfemur -8.48383 5.24948 19.7357
rtibia 22.3375
rfoot -9.45084 -10.4927
rtoes 3.04389
lfemur -6.36063 -3.0135 -18.7088
ltibia 16.9064
lfoot -10.6115 6.02803
ltoes -0.256859
355
root 0.575242 17.9661 -14.0233 7.28064 -4.81136 0.628001
lowerback 5.17644 -0.54555 -0.81911
upperback -1.74574 -0.658163 2.89292
thorax -4.67191 -0.258012 3.52449
lowerneck -17.7861 -3.05375 -10.2958
upperneck 13.3689 -2.7613 7.13609
head 7.26172 -1.20137 3.71552
rclavicle -1.20265e-014 1.51076e-014
rhumerus -40.5513 -16.1712 -73.0664
rradius 31.2374
rwrist 3.94935
rhand -13.9037 13.8334
rfingers 7.12502
rthumb 12.222 -15.7895
lclavicle -1.20265e-014 1.51076e-014
lhumerus -44.0612 21.4651 76.1933
lradius 27.513
lwrist -6.31254
lhand -21.4968 19.1123
lfingers 7.12502
lthumb 4.8947 49.0358
rfemur -8.25117 5.28899 19.6733
rtibia 22.1995
rfoot -9.83893 -10.7787
rtoes 3.20435
lfemur -6.41435 -3.09432 -18.8309
ltibia 17.1513
lfoot -11.2706 6.2409
ltoes -0.385626
356
root 0.577666 17.9321 -14.0347 7.14478 -4.67509 0.637031
lowerback 5.25825 -0.607373 -0.954039
upperback -1.75616 -0.746115 2.97394
thorax -4.72105 -0.29566 3.69542
lowerneck -17.5584 -3.01903 -10.4523
upperneck 13.1838 -2.70616 7.22189
head 7.16107 -1.17726 3.77427
rclavicle -1.41137e-014 5.08889e-014
rhumerus -40.5273 -15.9036 -73.0087
rradius 31.3961
rwrist 3.83888
rhand -13.7835 14.2244
rfingers 7.12502
rthumb 12.3379 -15.3916
lclavicle -1.41137e-014 5.08889e-014
lhumerus -44.103 21.6808 76.13
lradius 27.5242
lwrist -6.5203
lhand -21.3227 18.2865
lfingers 7.12502
lthumb 5.06274 48.206
rfemur -7.99669 5.46554 19.6611
rtibia 22.1355
rfoot -10.4945 -10.9905
rtoes 5.63625
lfemur -6.39029 -3.13047 -18.8985
ltibia 17.3293
lfoot -11.826 6.45421
ltoes 0.0120439
357
root 0.581328 17.902 -14.0494 7.08047 -4.6509 0.511574
lowerback 5.20267 -0.603752 -0.992709
upperback -1.76753 -0.739505 3.08008
thorax -4.70039 -0.28978 3.82698
lowerneck -17.4362 -2.96618 -10.5248
upperneck 13.1871 -2.63593 7.26189
head 7.13636 -1.14595 3.80785
rclavicle 6.36111e-015 2.62396e-014
rhumerus -40.481 -15.8097 -72.898
rradius 31.5458
rwrist 3.94553
rhand -13.6545 13.6573
rfingers 7.12502
rthumb 12.4622 -15.9512
lclavicle 6.36111e-015 2.62396e-014
lhumerus -44.0986 21.8147 76.1101
lradius 27.5487
lwrist -6.79085
lhand -20.9899 18.9029
lfingers 7.12502
lthumb 5.38413 48.8145
rfemur -7.81907 5.70342 19.8035
rtibia 22.085
rfoot -11.1359 -11.1986
rtoes 7.45094
lfemur -6.32281 -3.03853 -18.8262
ltibia 17.431
lfoot -12.3583 6.57853
ltoes 0.800036
358
root 0.584389 17.8761 -14.0671 7.01994 -4.45395 0.451451
lowerback 5.18909 -0.563254 -1.02109
upperback -1.72517 -0.689431 3.05176
thorax -4.65211 -0.265618 3.80782
lowerneck -17.3545 -3.0491 -10.2216
upperneck 13.018 -2.80917 7.15665
head 7.07772 -1.22249 3.70093
rclavicle 7.25564e-015 -7.95139e-016
rhumerus -40.432 -16.0567 -72.9535
rradius 32.019
rwrist 4.12619
rhand -13.4393 12.1717
rfingers 7.12502
rthumb 12.6697 -17.424
lclavicle 7.25564e-015 -7.95139e-016
lhumerus -43.9284 21.4546 76.2916
lradius 27.8684
lwrist -6.67421
lhand -21.335 18.1871
lfingers 7.12502
lthumb 5.05085 48.1069
rfemur -7.77596 5.61439 19.9786
rtibia 22.0055
rfoot -11.2273 -11.7533
rtoes 5.81786
lfemur -6.2451 -3.00951 -18.7827
ltibia 17.5067
lfoot -12.9195 6.59941
ltoes 1.30101
359
root 0.590879 17.848 -14.0834 7.00371 -4.16252 0.390304
lowerback 5.28752 -0.544333 -0.924743
upperback -1.72757 -0.659395 2.98629
thorax -4.71417 -0.253582 3.68393
lowerneck -17.2914 -3.16192 -10.0129
upperneck 12.8578 -3.01264 7.14166
head 7.03014 -1.31035 3.63664
rclavicle 1.36167e-014 -1.59028e-015
rhumerus -40.3593 -16.5878 -72.861
rradius 32.2018
rwrist 4.28702
rhand -13.3116 12.0673
rfingers 7.12502
rthumb 12.7928 -17.5207
lclavicle 1.36167e-014 -1.59028e-015
lhumerus -43.6542 21.0925 76.4698
lradius 28.0834
lwrist -6.57393
lhand -21.6115 17.9377
lfingers 7.12502
lthumb 4.78395 47.8637
rfemur -7.72355 5.44409 20.133
rtibia 21.8564
rfoot -11.296 -12.2516
rtoes 4.4929
lfemur -6.33253 -2.99828 -18.7286
ltibia 17.6171
lfoot -13.4413 6.58822
ltoes 1.09734
